<?xml version="1.0" encoding="iso-8859-1"?>
<!-- Generator: Adobe Illustrator 19.0.0, SVG Export Plug-In . SVG Version: 6.00 Build 0)  -->
<svg version="1.1" id="Capa_1" xmlns="http://www.w3.org/2000/svg" xmlns:xlink="http://www.w3.org/1999/xlink" x="0px" y="0px"
	 viewBox="0 0 512 512" style="enable-background:new 0 0 512 512;" xml:space="preserve">
<g>
	<g>
		<path d="M376.047,238.015h-10.709v37.438h11.43c9.81,0,16.829-7.56,16.829-18.63C393.597,245.665,386.217,238.015,376.047,238.015
			z"/>
	</g>
</g>
<g>
	<g>
		<path d="M439.084,238.195c-9.72,0-17.819,8.01-17.819,18.629c0,10.62,8.189,18.81,17.819,18.81c9.72,0,17.459-8.189,17.459-18.81
			C456.543,246.205,448.804,238.195,439.084,238.195z"/>
	</g>
</g>
<g>
	<g>
		<path d="M422,166H90c-49.626,0-90,40.374-90,90c0,49.626,40.374,90,90,90h332c49.626,0,90-40.374,90-90
			C512,206.374,471.626,166,422,166z M82.995,288.233l-28.979-38.788v38.788H38.987v-62.997h14.129l29.069,38.878v-38.878h14.939
			v62.997H82.995z M119.145,288.233h-16.02v-62.997h16.02V288.233z M228.873,288.233v-50.128h-14.83v50.128h-16.02v-50.128h-14.741
			v50.128h-14.13l-28.979-38.788v38.788h-15.029v-62.997h14.129l29.069,38.878v-38.878h109.849v12.599h-33.299v12.51h30.059v12.6
			h-30.059v12.689h34.288v12.599H228.873z M329.188,288.233l-28.979-38.788v38.788H285.18v-62.997h14.129l29.069,38.878v-38.878
			h14.939v62.997H329.188z M438.904,289.042c-14.623,0-26.493-7.844-31.479-19.583c-4.833,11.51-16.437,18.773-31.648,18.773
			h-26.459v-62.997h27.089c14.882,0,26.305,7.222,31.062,18.757c5.012-11.565,16.857-19.208,31.435-19.208
			c19.529,0,34.108,13.679,34.108,31.948C473.013,275.093,458.434,289.042,438.904,289.042z"/>
	</g>
</g>
<g>
</g>
<g>
</g>
<g>
</g>
<g>
</g>
<g>
</g>
<g>
</g>
<g>
</g>
<g>
</g>
<g>
</g>
<g>
</g>
<g>
</g>
<g>
</g>
<g>
</g>
<g>
</g>
<g>
</g>
</svg>
